<?xml version="1.0" encoding="UTF-8" standalone="no"?>
<!-- Created with Inkscape (http://www.inkscape.org/) -->

<svg
   xmlns:dc="http://purl.org/dc/elements/1.1/"
   xmlns:cc="http://creativecommons.org/ns#"
   xmlns:rdf="http://www.w3.org/1999/02/22-rdf-syntax-ns#"
   xmlns:svg="http://www.w3.org/2000/svg"
   xmlns="http://www.w3.org/2000/svg"
   xmlns:sodipodi="http://sodipodi.sourceforge.net/DTD/sodipodi-0.dtd"
   xmlns:inkscape="http://www.inkscape.org/namespaces/inkscape"
   id="svg2"
   version="1.1"
   inkscape:version="0.48.2 r9819"
   width="223"
   height="45"
   xml:space="preserve"
   sodipodi:docname="icr.svg"><metadata
     id="metadata8"><rdf:RDF><cc:Work
         rdf:about=""><dc:format>image/svg+xml</dc:format><dc:type
           rdf:resource="http://purl.org/dc/dcmitype/StillImage" /><dc:title /></cc:Work></rdf:RDF></metadata><defs
     id="defs6" /><sodipodi:namedview
     pagecolor="#ffffff"
     bordercolor="#666666"
     borderopacity="1"
     objecttolerance="10"
     gridtolerance="10"
     guidetolerance="10"
     inkscape:pageopacity="0"
     inkscape:pageshadow="2"
     inkscape:window-width="736"
     inkscape:window-height="480"
     id="namedview4"
     showgrid="false"
     fit-margin-top="0"
     fit-margin-left="0"
     fit-margin-right="0"
     fit-margin-bottom="0"
     inkscape:zoom="3.1712685"
     inkscape:cx="21.237003"
     inkscape:cy="20.66666"
     inkscape:window-x="0"
     inkscape:window-y="0"
     inkscape:window-maximized="0"
     inkscape:current-layer="g10" /><g
     id="g10"
     inkscape:groupmode="layer"
     inkscape:label="ink_ext_XXXXXX"
     transform="matrix(1.25,0,0,-1.25,-814.69731,202.64227)"><g
       id="g12"
       transform="matrix(0.01212431,0,0,0.01212431,652.06786,126.91378)"><path
         d="m 280.512,623.348 -249.3479,0 L 0,654.438 0,2774.87 l 31.1641,31.09 249.3479,0 31.164,-31.09 0,-2120.432 -31.164,-31.09"
         style="fill:#616365;fill-opacity:1;fill-rule:nonzero;stroke:none"
         id="path14"
         inkscape:connector-curvature="0" /><path
         d="m 680.812,1714.58 c 0,655.04 374.238,1122.7 1029.048,1122.7 498.91,0 810.87,-280.73 873.21,-654.81 l -31.16,-31.32 -249.5,0 -31.24,31.32 c -62.4,218.24 -249.4,374.08 -561.31,374.08 -467.81,0 -717.161,-342.99 -717.161,-841.97 0,-498.83 249.351,-842.06 717.161,-842.06 343.15,0 498.91,187.4 561.31,405.48 l 31.24,31.09 249.5,0 31.16,-31.09 C 2520.73,904.074 2240.01,592.027 1709.86,592.027 1055.05,592.027 680.812,1059.92 680.812,1714.58"
         style="fill:#616365;fill-opacity:1;fill-rule:nonzero;stroke:none"
         id="path16"
         inkscape:connector-curvature="0" /><path
         d="m 3944.12,2525.47 -654.82,0 -31.16,-31.19 0,-623.49 31.16,-31.55 654.82,0 c 280.73,0 405.32,93.81 405.32,343.23 0,249.56 -124.59,343 -405.32,343 z m 249.25,-935.63 0,-31.09 436.63,-686.23 0,-218.082 -31.16,-31.09 -124.75,0 -62.25,31.09 -561.31,873.122 -62.33,31.19 -498.9,0 -31.16,-31.19 0,-873.122 -31.4,-31.09 -249.32,0 -31.19,31.09 0,2120.432 31.19,31.09 966.7,0 c 436.56,0 717.11,-186.92 717.11,-623.49 0,-343.23 -187.14,-530.15 -467.86,-592.63"
         style="fill:#616365;fill-opacity:1;fill-rule:nonzero;stroke:none"
         id="path18"
         inkscape:connector-curvature="0" /><path
         d="m 223.98,280.504 0,-249.422 L 192.812,0 31.2422,0 0,31.082 l 0,249.422 31.2422,31.168 161.5698,0 31.168,-31.168"
         style="fill:#c9dd03;fill-opacity:1;fill-rule:nonzero;stroke:none"
         id="path20"
         inkscape:connector-curvature="0" /><path
         d="m 765.492,280.504 0,-249.422 L 734.328,0 348.676,0 l -31.164,31.082 0,249.422 31.164,31.168 385.652,0 31.164,-31.168"
         style="fill:#ffd602;fill-opacity:1;fill-rule:nonzero;stroke:none"
         id="path22"
         inkscape:connector-curvature="0" /><path
         d="m 1531.02,280.504 0,-249.422 L 1499.84,0 890.184,0 859.02,31.082 l 0,249.422 31.164,31.168 609.656,0 31.18,-31.168"
         style="fill:#f9a100;fill-opacity:1;fill-rule:nonzero;stroke:none"
         id="path24"
         inkscape:connector-curvature="0" /><path
         d="m 2744.47,280.504 0,-249.422 L 2713.3,0 1655.7,0 l -31.17,31.082 0,249.422 31.17,31.168 1057.6,0 31.17,-31.168"
         style="fill:#ee7ea6;fill-opacity:1;fill-rule:nonzero;stroke:none"
         id="path26"
         inkscape:connector-curvature="0" /><path
         d="m 4629.93,280.504 0,-249.422 L 4598.84,0 2869.21,0 l -31.16,31.082 0,249.422 31.16,31.168 1729.63,0 31.09,-31.168"
         style="fill:#a71930;fill-opacity:1;fill-rule:nonzero;stroke:none"
         id="path28"
         inkscape:connector-curvature="0" /><path
         d="m 5881.74,2690.34 -269.31,0 -12.68,-12.6 0,-757.69 -12.91,-12.99 -102.77,0 -13.08,12.99 0,757.69 -12.76,12.6 -269.66,0 -12.99,12.77 0,90.09 12.99,12.76 693.17,0 12.83,-12.76 0,-90.09 -12.83,-12.77"
         style="fill:#616365;fill-opacity:1;fill-rule:nonzero;stroke:none"
         id="path30"
         inkscape:connector-curvature="0" /><path
         d="m 6536.91,1907.06 -102.78,0 -12.99,12.99 0,372.54 c 0,77.18 -25.44,154.52 -128.53,154.52 -102.62,0 -166.89,-51.66 -166.89,-205.56 l 0,-321.5 -12.83,-12.99 -102.78,0 -12.68,12.99 0,873.15 12.68,12.76 102.78,0 12.83,-12.76 0,-307.81 12.99,0 c 0,0 51.28,77.12 167.04,77.12 192.64,0 244,-128.39 244,-269.92 l 0,-372.54 -12.84,-12.99"
         style="fill:#616365;fill-opacity:1;fill-rule:nonzero;stroke:none"
         id="path32"
         inkscape:connector-curvature="0" /><path
         d="m 7114.57,2292.59 c 0,38.67 -12.98,154.52 -154.2,154.52 -141.37,0 -154.2,-115.85 -154.2,-154.52 l 12.83,-12.91 282.59,0 12.98,12.91 z m -449.61,-63.95 c 0,179.57 89.86,333.87 295.41,333.87 205.48,0 295.42,-154.3 295.42,-333.87 l 0,-38.9 -12.76,-12.76 -424.03,0 -12.83,-12.91 c 0,-25.53 12.83,-154.15 167.04,-154.15 51.35,0 102.7,13.01 128.38,77.2 l 12.98,12.76 102.7,0 12.84,-12.76 c -12.84,-102.88 -102.78,-192.82 -256.9,-192.82 -205.55,0 -308.25,141.39 -308.25,334.34"
         style="fill:#616365;fill-opacity:1;fill-rule:nonzero;stroke:none"
         id="path34"
         inkscape:connector-curvature="0" /><path
         d="m 7845.64,1907.06 -101.62,0 -12.68,12.99 0,873.15 12.68,12.76 101.62,0 12.84,-12.76 0,-873.15 -12.84,-12.99"
         style="fill:#616365;fill-opacity:1;fill-rule:nonzero;stroke:none"
         id="path36"
         inkscape:connector-curvature="0" /><path
         d="m 8577.97,1907.06 -102.83,0 -12.84,12.99 0,372.54 c 0,64.19 -12.84,154.52 -128.53,154.52 -115.53,0 -167.11,-64.42 -167.11,-218.47 l 0,-308.59 -12.7,-12.99 -102.84,0 -12.84,12.99 0,616.94 12.84,12.76 90.02,0 12.82,-12.76 12.7,-51.6 13.06,0 c 0,0 51.2,77.12 166.89,77.12 180.01,0 244.28,-115.4 244.28,-269.92 l 0,-372.54 -12.92,-12.99"
         style="fill:#616365;fill-opacity:1;fill-rule:nonzero;stroke:none"
         id="path38"
         inkscape:connector-curvature="0" /><path
         d="m 8950.57,1894.3 c -167.04,0 -256.82,77.18 -256.82,218.49 l 12.84,12.76 102.7,0 12.6,-12.76 c 0,-64.34 38.82,-102.87 128.68,-102.87 89.86,0 128.38,25.77 128.38,77.2 0,64.18 -38.52,76.95 -166.97,102.62 -128.45,25.91 -205.39,77.18 -205.39,192.95 0,89.94 64.1,179.82 243.98,179.82 141.36,0 243.98,-64.36 243.98,-192.74 l -12.67,-12.99 -102.93,0 -12.69,12.99 c 0,38.44 -25.83,77.34 -115.69,77.34 -64.18,0 -115.54,-12.99 -115.54,-64.42 0,-64.19 51.36,-77.1 179.8,-103.01 128.46,-25.52 192.72,-76.95 192.72,-192.56 0,-102.88 -77.18,-192.82 -256.98,-192.82"
         style="fill:#616365;fill-opacity:1;fill-rule:nonzero;stroke:none"
         id="path40"
         inkscape:connector-curvature="0" /><path
         d="m 9668.72,1907.06 -102.7,0 c -89.88,0 -179.82,51.66 -179.82,167.3 l 0,346.84 -12.92,12.92 -88.62,0 -12.92,12.99 0,89.88 12.92,12.76 88.62,0 12.92,12.76 0,115.23 12.68,12.6 102.94,0 12.84,-12.6 0,-115.23 12.92,-12.76 141.14,0 13.07,-12.76 0,-89.88 -13.07,-12.99 -141.14,0 -12.92,-12.92 0,-346.84 c 0,-38.67 25.76,-51.43 51.36,-51.43 l 102.7,0 13.07,-13.01 0,-89.87 -13.07,-12.99"
         style="fill:#616365;fill-opacity:1;fill-rule:nonzero;stroke:none"
         id="path42"
         inkscape:connector-curvature="0" /><path
         d="m 9925.81,1907.06 -102.73,0 -12.92,12.99 0,616.94 12.92,12.76 102.73,0 12.77,-12.76 0,-616.94 -12.77,-12.99 z m 0,744.62 -102.73,0 -12.92,12.91 0,102.86 12.92,12.99 102.73,0 12.77,-12.99 0,-102.86 -12.77,-12.91"
         style="fill:#616365;fill-opacity:1;fill-rule:nonzero;stroke:none"
         id="path44"
         inkscape:connector-curvature="0" /><path
         d="m 10439.7,1907.06 -102.7,0 c -90,0 -180,51.66 -180,167.3 l 0,346.84 -12.9,12.92 -89.8,0 -12.9,12.99 0,89.88 12.9,12.76 89.8,0 12.9,12.76 0,115.23 12.8,12.6 102.9,0 12.7,-12.6 0,-115.23 13,-12.76 141.3,0 13.1,-12.76 0,-89.88 -13.1,-12.99 -141.3,0 -13,-12.92 0,-346.84 c 0,-38.67 25.8,-51.43 51.6,-51.43 l 102.7,0 13.1,-13.01 0,-89.87 -13.1,-12.99"
         style="fill:#616365;fill-opacity:1;fill-rule:nonzero;stroke:none"
         id="path46"
         inkscape:connector-curvature="0" /><path
         d="m 11093.9,1907.06 -90,0 -12.8,12.99 -13,51.43 -12.6,0 c 0,0 -50.4,-77.18 -153.4,-77.18 -179.7,0 -243.8,128.63 -243.8,269.77 l 0,372.92 12.8,12.76 102.9,0 12.7,-12.76 0,-372.92 c 0,-76.95 25.9,-154.15 128.4,-154.15 90,0 153,64.44 153,218.72 l 0,308.35 13,12.76 102.8,0 12.6,-12.76 0,-616.94 -12.6,-12.99"
         style="fill:#616365;fill-opacity:1;fill-rule:nonzero;stroke:none"
         id="path48"
         inkscape:connector-curvature="0" /><path
         d="m 11607.8,1907.06 -103,0 c -89.8,0 -179.7,51.66 -179.7,167.3 l 0,346.84 -13,12.92 -89.9,0 -12.8,12.99 0,89.88 12.8,12.76 89.9,0 13,12.76 0,115.23 12.9,12.6 102.8,0 12.7,-12.6 0,-115.23 13.1,-12.76 141.2,0 12.7,-12.76 0,-89.88 -12.7,-12.99 -141.2,0 -13.1,-12.92 0,-346.84 c 0,-38.67 25.7,-51.43 51.3,-51.43 l 103,0 12.7,-13.01 0,-89.87 -12.7,-12.99"
         style="fill:#616365;fill-opacity:1;fill-rule:nonzero;stroke:none"
         id="path50"
         inkscape:connector-curvature="0" /><path
         d="m 12134.5,2292.59 c 0,38.67 -12.7,154.52 -154.2,154.52 -141.5,0 -154.2,-115.85 -154.2,-154.52 l 12.7,-12.91 283,0 12.7,12.91 z m -449.7,-63.95 c 0,179.57 89.8,333.87 295.5,333.87 205.6,0 295.5,-154.3 295.5,-333.87 l 0,-38.9 -12.9,-12.76 -424.1,0 -12.7,-12.91 c 0,-25.53 12.7,-154.15 167,-154.15 51.4,0 103,13.01 128.7,77.2 l 12.7,12.76 102.7,0 12.8,-12.76 c -12.8,-102.88 -102.7,-192.82 -256.9,-192.82 -205.6,0 -308.3,141.39 -308.3,334.34"
         style="fill:#616365;fill-opacity:1;fill-rule:nonzero;stroke:none"
         id="path52"
         inkscape:connector-curvature="0" /><path
         d="m 12994,2009.92 c 115.7,0 179.8,77.2 179.8,218.72 0,141.13 -64.1,218.47 -179.8,218.47 -115.6,0 -179.8,-77.34 -179.8,-218.47 0,-141.52 64.2,-218.72 179.8,-218.72 z m 0,552.59 c 192.7,0 308.6,-128.39 308.6,-333.87 0,-205.71 -115.9,-334.34 -308.6,-334.34 -192.7,0 -308.3,128.63 -308.3,334.34 0,205.48 115.6,333.87 308.3,333.87"
         style="fill:#616365;fill-opacity:1;fill-rule:nonzero;stroke:none"
         id="path54"
         inkscape:connector-curvature="0" /><path
         d="m 13752,2434.12 -128.4,0 -12.8,-12.92 0,-501.15 -12.8,-12.99 -102.8,0 -13,12.99 0,501.15 -12.7,12.92 -89.9,0 -12.9,12.99 0,89.88 12.9,12.76 89.9,0 12.7,12.76 0,50.65 c 0,115.62 89.9,167.28 179.9,167.28 l 102.9,0 12.7,-12.99 0,-89.71 -12.7,-13.15 -102.9,0 c -25.6,0 -51.3,-12.91 -51.3,-51.43 l 0,-50.65 12.8,-12.76 128.4,0 13,-12.76 0,-89.88 -13,-12.99"
         style="fill:#616365;fill-opacity:1;fill-rule:nonzero;stroke:none"
         id="path56"
         inkscape:connector-curvature="0" /><path
         d="m 5201.33,1072.99 c 0,269.66 154.2,462.46 423.88,462.46 205.25,0 333.55,-115.84 359.38,-269.9 l -12.92,-12.76 -102.77,0 -12.76,12.76 c -25.68,90.25 -102.24,154.06 -230.93,154.06 -192.5,0 -295.43,-141.3 -295.43,-346.62 0,-205.568 102.93,-346.865 295.43,-346.865 141.52,0 205.25,77.102 230.93,167.043 l 12.76,12.531 102.77,0 12.92,-12.531 c -25.83,-154.281 -141.21,-282.887 -359.38,-282.887 -269.68,0 -423.88,192.946 -423.88,462.709"
         style="fill:#616365;fill-opacity:1;fill-rule:nonzero;stroke:none"
         id="path58"
         inkscape:connector-curvature="0" /><path
         d="m 6485.48,893.168 -12.68,12.531 c 0,0 -38.67,12.989 -102.85,12.989 -115.7,0 -167.04,-38.508 -167.04,-102.7 0,-64.343 38.58,-89.863 115.54,-89.863 102.69,0 167.03,51.195 167.03,128.379 l 0,38.664 z m 115.21,-269.742 -89.46,0 -12.84,12.758 -12.91,51.425 -12.68,0 c 0,0 -51.66,-77.328 -180.19,-77.328 -141.06,0 -218.24,77.328 -218.24,205.707 0,141.137 115.62,205.552 282.58,205.552 64.19,0 115.85,-12.75 115.85,-12.75 l 12.68,12.75 0,25.68 c 0,89.95 -38.51,115.48 -128.53,115.48 -89.78,0 -128.37,-25.53 -128.37,-76.95 l -12.92,-12.76 -102.77,0 -12.77,12.76 c 0,90.1 64.35,192.56 256.83,192.56 192.8,0 256.5,-89.7 256.5,-282.521 l 0,-359.605 -12.76,-12.758"
         style="fill:#616365;fill-opacity:1;fill-rule:nonzero;stroke:none"
         id="path60"
         inkscape:connector-curvature="0" /><path
         d="m 7294.45,623.426 -102.92,0 -12.84,12.758 0,372.606 c 0,64.2 -12.84,153.91 -128.53,153.91 -115.39,0 -166.81,-64.03 -166.81,-218.337 l 0,-308.179 -12.99,-12.758 -102.7,0 -12.84,12.758 0,616.606 12.84,12.76 89.93,0 12.77,-12.76 12.99,-51.42 12.68,0 c 0,0 51.5,76.94 167.2,76.94 179.88,0 243.98,-115.61 243.98,-269.52 l 0,-372.606 -12.76,-12.758"
         style="fill:#616365;fill-opacity:1;fill-rule:nonzero;stroke:none"
         id="path62"
         inkscape:connector-curvature="0" /><path
         d="m 7718.35,726.125 c 101.53,0 140.2,51.195 153.04,102.621 l 12.83,12.758 102.78,0 12.76,-12.758 C 7987,713.137 7896.98,610.281 7718.35,610.281 c -192.66,0 -308.36,128.606 -308.36,334.082 0,205.577 115.7,333.947 308.36,333.947 178.63,0 268.65,-102.46 281.41,-218.31 l -12.76,-12.78 -102.78,0 -12.83,12.78 c -12.84,51.43 -51.51,102.7 -153.04,102.7 -115.7,0 -179.9,-76.95 -179.9,-218.337 0,-141.136 64.2,-218.238 179.9,-218.238"
         style="fill:#616365;fill-opacity:1;fill-rule:nonzero;stroke:none"
         id="path64"
         inkscape:connector-curvature="0" /><path
         d="m 8526.62,1008.79 c 0,38.43 -12.82,153.91 -154.18,153.91 -141.44,0 -154.2,-115.48 -154.2,-153.91 l 12.76,-13.001 282.8,0 12.82,13.001 z m -449.68,-64.427 c 0,179.817 89.72,333.947 295.5,333.947 205.53,0 295.47,-154.13 295.47,-333.947 l 0,-38.664 -12.84,-12.531 -424.07,0 -12.76,-12.988 c 0,-25.676 12.76,-154.055 167.11,-154.055 51.27,0 102.63,12.762 128.45,77.102 l 12.82,12.761 102.7,0 12.84,-12.761 c -12.84,-103.008 -102.55,-192.946 -256.81,-192.946 -205.63,0 -308.41,141.364 -308.41,334.082"
         style="fill:#616365;fill-opacity:1;fill-rule:nonzero;stroke:none"
         id="path66"
         inkscape:connector-curvature="0" /><path
         d="m 9143.29,1149.94 -64.34,0 c -102.7,0 -166.97,-38.51 -166.97,-192.815 l 0,-320.941 -12.77,-12.758 -102.76,0 -12.92,12.758 0,616.606 12.92,12.76 89.94,0 12.82,-12.76 12.77,-51.42 12.77,0 c 38.66,38.43 77.25,64.18 167.18,64.18 l 51.36,0 12.99,-12.76 0,-90.09 -12.99,-12.76"
         style="fill:#616365;fill-opacity:1;fill-rule:nonzero;stroke:none"
         id="path68"
         inkscape:connector-curvature="0" /><path
         d="m 10028.7,1406.84 -269.96,0 -13,-12.75 0,-256.92 13,-12.99 269.96,0 c 115.6,0 166.9,38.52 166.9,141.37 0,102.86 -51.3,141.29 -166.9,141.29 z m 102.5,-385.3 0,-12.75 180,-282.665 0,-89.941 -12.8,-12.758 -51.3,0 -25.7,12.758 -231.35,359.605 -25.73,13.001 -205.58,0 -13,-13.001 0,-359.605 -12.84,-12.758 -102.62,0 -12.84,12.758 0,873.516 12.84,12.76 398.42,0 c 179.6,0 295.2,-76.95 295.2,-256.91 0,-141.37 -76.8,-218.33 -192.7,-244.01"
         style="fill:#616365;fill-opacity:1;fill-rule:nonzero;stroke:none"
         id="path70"
         inkscape:connector-curvature="0" /><path
         d="m 10850.9,1008.79 c 0,38.43 -12.8,153.91 -154.1,153.91 -141.4,0 -154.2,-115.48 -154.2,-153.91 l 12.8,-13.001 282.7,0 12.8,13.001 z m -449.7,-64.427 c 0,179.817 89.8,333.947 295.6,333.947 205.4,0 294.3,-154.13 294.3,-333.947 l 0,-38.664 -13,-12.531 -422.7,0 -12.8,-12.988 c 0,-25.676 12.8,-154.055 167,-154.055 51.5,0 102.7,12.762 128.5,77.102 l 12.8,12.761 102.8,0 11.8,-12.761 c -11.8,-103.008 -101.8,-192.946 -255.9,-192.946 -205.6,0 -308.4,141.364 -308.4,334.082"
         style="fill:#616365;fill-opacity:1;fill-rule:nonzero;stroke:none"
         id="path72"
         inkscape:connector-curvature="0" /><path
         d="m 11325.2,610.281 c -167.3,0 -257.1,77.328 -257.1,218.465 l 12.9,12.758 102.6,0 12.8,-12.758 c 0,-64.184 38.6,-102.621 128.8,-102.621 89.8,0 128.3,25.52 128.3,77.102 0,64.195 -38.5,76.953 -167.1,102.472 -128.5,25.906 -205.4,77.328 -205.4,192.971 0,89.94 64.2,179.64 244.2,179.64 141.4,0 244,-64.19 244,-192.56 l -13,-12.76 -102.7,0 -12.7,12.76 c 0,38.43 -25.8,76.95 -115.6,76.95 -64.1,0 -115.8,-12.76 -115.8,-64.03 0,-64.37 51.7,-77.13 179.8,-102.881 128.5,-25.668 192.8,-77.101 192.8,-192.562 0,-103.008 -77.1,-192.946 -256.8,-192.946"
         style="fill:#616365;fill-opacity:1;fill-rule:nonzero;stroke:none"
         id="path74"
         inkscape:connector-curvature="0" /><path
         d="m 12108.7,1008.79 c 0,38.43 -12.6,153.91 -154.1,153.91 -141.3,0 -154.2,-115.48 -154.2,-153.91 l 12.9,-13.001 282.8,0 12.6,13.001 z m -449.6,-64.427 c 0,179.817 89.9,333.947 295.5,333.947 205.6,0 295.4,-154.13 295.4,-333.947 l 0,-38.664 -12.8,-12.531 -423.9,0 -12.9,-12.988 c 0,-25.676 12.9,-154.055 167,-154.055 51.5,0 102.8,12.762 128.7,77.102 l 12.6,12.761 102.7,0 13,-12.761 c -13,-103.008 -102.6,-192.946 -257,-192.946 -205.6,0 -308.3,141.364 -308.3,334.082"
         style="fill:#616365;fill-opacity:1;fill-rule:nonzero;stroke:none"
         id="path76"
         inkscape:connector-curvature="0" /><path
         d="m 12737.1,893.168 -12.9,12.531 c 0,0 -38.5,12.989 -102.8,12.989 -114.4,0 -165.8,-38.508 -165.8,-102.7 0,-64.343 38.5,-89.863 114.6,-89.863 102.8,0 166.9,51.195 166.9,128.379 l 0,38.664 z m 115.7,-269.742 -90,0 -12.9,12.758 -12.8,51.425 -12.9,0 c 0,0 -51.2,-77.328 -178.6,-77.328 -141.3,0 -218.5,77.328 -218.5,205.707 0,141.137 115.7,205.552 281.6,205.552 64.3,0 115.5,-12.75 115.5,-12.75 l 12.9,12.75 0,25.68 c 0,89.95 -38.4,115.48 -128.4,115.48 -88.6,0 -127.1,-25.53 -127.1,-76.95 l -13.3,-12.76 -102.5,0 -13,12.76 c 0,90.1 64.3,192.56 255.9,192.56 192.6,0 256.9,-89.7 256.9,-282.521 l 0,-359.605 -12.8,-12.758"
         style="fill:#616365;fill-opacity:1;fill-rule:nonzero;stroke:none"
         id="path78"
         inkscape:connector-curvature="0" /><path
         d="m 13366.7,1149.94 -64.1,0 c -102.9,0 -167.2,-38.51 -167.2,-192.815 l 0,-320.941 -12.7,-12.758 -102.9,0 -12.9,12.758 0,616.606 12.9,12.76 89.9,0 13,-12.76 12.7,-51.42 12.9,0 c 38.4,38.43 77.2,64.18 167.1,64.18 l 51.3,0 12.9,-12.76 0,-90.09 -12.9,-12.76"
         style="fill:#616365;fill-opacity:1;fill-rule:nonzero;stroke:none"
         id="path80"
         inkscape:connector-curvature="0" /><path
         d="m 13713.6,726.125 c 102.7,0 141.3,51.195 154.1,102.621 l 13,12.758 102.6,0 13,-12.758 c -13,-115.609 -102.9,-218.465 -282.7,-218.465 -192.7,0 -308.4,128.606 -308.4,334.082 0,205.577 115.7,333.947 308.4,333.947 179.8,0 269.7,-102.46 282.7,-218.31 l -13,-12.78 -102.6,0 -13,12.78 c -12.8,51.43 -51.4,102.7 -154.1,102.7 -115.6,0 -179.9,-76.95 -179.9,-218.337 0,-141.136 64.3,-218.238 179.9,-218.238"
         style="fill:#616365;fill-opacity:1;fill-rule:nonzero;stroke:none"
         id="path82"
         inkscape:connector-curvature="0" /><path
         d="m 14650.4,623.426 -102.9,0 -12.9,12.758 0,372.606 c 0,76.96 -25.7,153.91 -128.3,153.91 -102.9,0 -167.2,-51.27 -167.2,-205.575 l 0,-320.941 -12.8,-12.758 -101.6,0 -13,12.758 0,873.516 13,12.76 101.6,0 12.8,-12.76 0,-308.33 12.9,0 c 0,0 51.4,76.94 167.1,76.94 192.6,0 244,-128.37 244,-269.52 l 0,-372.606 -12.7,-12.758"
         style="fill:#616365;fill-opacity:1;fill-rule:nonzero;stroke:none"
         id="path84"
         inkscape:connector-curvature="0" /></g></g></svg>